<svg xmlns="http://www.w3.org/2000/svg" xmlns:xlink="http://www.w3.org/1999/xlink" width="46.255" height="49.645" viewBox="0 0 46.255 49.645"><defs><linearGradient id="linear-gradient" x1="-79.977" y1="-6879.464" x2="-81.563" y2="-6849.134" gradientUnits="objectBoundingBox"><stop offset="0.079" stop-color="#b0e355"></stop><stop offset="0.211" stop-color="#ace052"></stop><stop offset="0.321" stop-color="#a2d949"></stop><stop offset="0.422" stop-color="#91ce3b"></stop><stop offset="0.519" stop-color="#78be26"></stop><stop offset="0.612" stop-color="#59a90c"></stop><stop offset="0.651" stop-color="#4a9f00"></stop><stop offset="1" stop-color="#346d0a"></stop></linearGradient><linearGradient id="linear-gradient-2" x1="-78.051" y1="-6626.957" x2="-79.593" y2="-6597.762" xlink:href="#linear-gradient"></linearGradient><linearGradient id="linear-gradient-3" x1="-85.494" y1="-5063.148" x2="-87.175" y2="-5040.858" xlink:href="#linear-gradient"></linearGradient><linearGradient id="linear-gradient-4" x1="-91.592" y1="-4873.24" x2="-93.386" y2="-4851.802" xlink:href="#linear-gradient"></linearGradient><linearGradient id="linear-gradient-5" x1="-104.916" y1="-3629.193" x2="-106.963" y2="-3613.24" xlink:href="#linear-gradient"></linearGradient><linearGradient id="linear-gradient-6" x1="-126.484" y1="-3457.149" x2="-128.942" y2="-3441.963" xlink:href="#linear-gradient"></linearGradient><linearGradient id="linear-gradient-7" x1="-173.359" y1="-3147.68" x2="-176.712" y2="-3133.864" xlink:href="#linear-gradient"></linearGradient><linearGradient id="linear-gradient-8" x1="-262.665" y1="-3485.208" x2="-267.73" y2="-3469.918" xlink:href="#linear-gradient"></linearGradient><linearGradient id="linear-gradient-9" x1="-463.004" y1="-652.445" x2="-472.286" y2="-649.566" xlink:href="#linear-gradient"></linearGradient><linearGradient id="linear-gradient-10" x1="-459.51" y1="-584.358" x2="-468.682" y2="-581.781" xlink:href="#linear-gradient"></linearGradient><linearGradient id="linear-gradient-11" x1="-591.136" y1="-561.63" x2="-602.875" y2="-559.156" xlink:href="#linear-gradient"></linearGradient><linearGradient id="linear-gradient-12" x1="-1089.299" y1="-602.925" x2="-1110.794" y2="-600.27" xlink:href="#linear-gradient"></linearGradient><linearGradient id="linear-gradient-13" x1="-1449.138" y1="-692.316" x2="-1477.575" y2="-689.27" xlink:href="#linear-gradient"></linearGradient><linearGradient id="linear-gradient-14" x1="-1022.13" y1="-832.517" x2="-1042.068" y2="-828.859" xlink:href="#linear-gradient"></linearGradient><linearGradient id="linear-gradient-15" x1="-1429.74" y1="-1239.547" x2="-1457.48" y2="-1234.104" xlink:href="#linear-gradient"></linearGradient><linearGradient id="linear-gradient-16" x1="-846.258" y1="-1795.459" x2="-862.596" y2="-1787.582" xlink:href="#linear-gradient"></linearGradient></defs><g id="Group_2" data-name="Group 2" transform="translate(-146.7 -187.823)"><path id="Path_1" data-name="Path 1" d="M164.958,228.128c15.041,5.918,25.558,6.356,25.558,6.356s0-.092,0-.263l-1.9-1.8s-18.092-16.034-39.977-42.457c-.1-.042-.2-.082-.3-.126C152.085,199.508,139.3,218.034,164.958,228.128Z" transform="translate(2.433 2.984)" fill="#fff"></path><path id="Path_2" data-name="Path 2" d="M188.444,232.351l1.9,1.8c.007-1.717-.151-11.855-4.786-25.808-7.595-22.863-27.515-14.508-37.091-18.444C170.352,216.317,188.444,232.351,188.444,232.351Z" transform="translate(2.61 3.059)" fill="#fff"></path><g id="Group_1" data-name="Group 1" transform="translate(146.7 187.823)"><path id="Path_3" data-name="Path 3" d="M172.732,193.4l-22-.736a.368.368,0,0,1,.025-.736h.01l21.974,1.318a.077.077,0,0,1-.007.154Z" transform="translate(-141.27 -181.763)" fill="url(#linear-gradient)"></path><path id="Path_4" data-name="Path 4" d="M174.738,195.171l-22.65-.8a.367.367,0,1,1,.025-.733h.01l22.623,1.377a.076.076,0,1,1-.007.151Z" transform="translate(-139.269 -179.226)" fill="url(#linear-gradient-2)"></path><path id="Path_5" data-name="Path 5" d="M174.45,197.368,153.712,196.1a.369.369,0,0,1,.045-.736l.01,0,20.7,1.845a.077.077,0,0,1-.012.154Z" transform="translate(-136.853 -176.682)" fill="url(#linear-gradient-3)"></path><path id="Path_6" data-name="Path 6" d="M174.639,199.349,155.228,198a.368.368,0,1,1,.052-.733h.01l19.361,1.927a.079.079,0,0,1,.069.084A.078.078,0,0,1,174.639,199.349Z" transform="translate(-134.609 -173.873)" fill="url(#linear-gradient-4)"></path><path id="Path_7" data-name="Path 7" d="M173.853,201.929l-16.978-2.063a.368.368,0,0,1,.089-.731l.012,0,16.9,2.641a.077.077,0,0,1,.062.087A.075.075,0,0,1,173.853,201.929Z" transform="translate(-132.147 -171.119)" fill="url(#linear-gradient-5)"></path><path id="Path_8" data-name="Path 8" d="M172.665,203.848l-14.08-2.207a.365.365,0,0,1-.307-.419.369.369,0,0,1,.421-.307l.015,0,13.978,2.779a.08.08,0,0,1,.059.092A.075.075,0,0,1,172.665,203.848Z" transform="translate(-129.606 -168.492)" fill="url(#linear-gradient-6)"></path><path id="Path_9" data-name="Path 9" d="M170.86,206.065l-10.24-2.5a.369.369,0,0,1,.176-.716l.02.007,10.084,3.062a.077.077,0,0,1-.04.149Z" transform="translate(-126.553 -165.646)" fill="url(#linear-gradient-7)"></path><path id="Path_10" data-name="Path 10" d="M168.693,207.294l-6.673-2.2a.368.368,0,0,1-.233-.466.364.364,0,0,1,.463-.233l.03.01,6.468,2.745a.073.073,0,0,1,.04.1A.075.075,0,0,1,168.693,207.294Z" transform="translate(-124.443 -163.368)" fill="url(#linear-gradient-8)"></path><path id="Path_11" data-name="Path 11" d="M153.009,192.527l-3.671,14.981a.076.076,0,0,1-.149-.032l3.1-15.11a.369.369,0,0,1,.723.146Z" transform="translate(-143.024 -181.548)" fill="url(#linear-gradient-9)"></path><path id="Path_12" data-name="Path 12" d="M154.533,194.309l-3.721,16.807a.076.076,0,1,1-.149-.03l3.151-16.923a.367.367,0,1,1,.721.134Z" transform="translate(-140.847 -178.904)" fill="url(#linear-gradient-10)"></path><path id="Path_13" data-name="Path 13" d="M155.49,196.113l-2.876,17.54a.076.076,0,0,1-.151-.022l2.3-17.624a.367.367,0,1,1,.728.094Z" transform="translate(-138.188 -176.209)" fill="url(#linear-gradient-11)"></path><path id="Path_14" data-name="Path 14" d="M156.358,197.83l-1.5,16.339a.075.075,0,0,1-.082.069.077.077,0,0,1-.069-.082l.919-16.381a.368.368,0,1,1,.736.042Z" transform="translate(-134.875 -173.636)" fill="url(#linear-gradient-12)"></path><path id="Path_15" data-name="Path 15" d="M157.841,199.6l-1.1,14.186a.078.078,0,0,1-.084.069.077.077,0,0,1-.069-.079l.515-14.218a.368.368,0,1,1,.736.027Z" transform="translate(-132.092 -171.01)" fill="url(#linear-gradient-13)"></path><path id="Path_16" data-name="Path 16" d="M159.251,201.424,160.3,213.2a.079.079,0,0,1-.069.084.081.081,0,0,1-.084-.067l-1.627-11.712a.367.367,0,0,1,.728-.1Z" transform="translate(-129.246 -168.229)" fill="url(#linear-gradient-14)"></path><path id="Path_17" data-name="Path 17" d="M161.078,203.176l.547,7.773a.075.075,0,0,1-.069.082.078.078,0,0,1-.082-.067l-1.127-7.709a.368.368,0,1,1,.728-.107Z" transform="translate(-126.548 -165.653)" fill="url(#linear-gradient-15)"></path><path id="Path_18" data-name="Path 18" d="M162.649,204.807l1.452,5.3a.077.077,0,0,1-.146.049l-2-5.115a.368.368,0,0,1,.686-.268Z" transform="translate(-124.212 -163.137)" fill="url(#linear-gradient-16)"></path><path id="Path_19" data-name="Path 19" d="M190.918,235.561l-.538-.473c-.352-.3-.857-.77-1.5-1.355s-1.437-1.291-2.319-2.128-1.885-1.766-2.975-2.789-2.234-2.165-3.465-3.356c-.612-.6-1.243-1.211-1.888-1.838s-1.283-1.288-1.942-1.949c-1.313-1.328-2.67-2.7-4.05-4.1l-1.035-1.053c-.339-.357-.679-.718-1.021-1.078l-2.051-2.17c-1.37-1.449-2.74-2.9-4.087-4.322-1.325-1.447-2.611-2.888-3.864-4.275s-2.46-2.732-3.607-4q-.431-.479-.85-.944l-.8-.931q-.784-.921-1.513-1.774c-3.887-4.55-6.475-7.585-6.475-7.585a.98.98,0,0,1,1.491-1.273l.012.015.02.025,6.264,7.709q.706.869,1.466,1.806l.775.949c.27.315.543.634.822.959,1.11,1.3,2.284,2.663,3.5,4.077s2.46,2.881,3.745,4.355c1.31,1.457,2.641,2.933,3.971,4.409l1.992,2.215q.5.55.993,1.1l1.008,1.075c1.34,1.427,2.66,2.829,3.939,4.186.642.676,1.258,1.355,1.89,1.992s1.241,1.268,1.838,1.88c1.2,1.216,2.321,2.38,3.376,3.433s2.039,2.006,2.9,2.856,1.632,1.575,2.259,2.177,1.122,1.075,1.469,1.387l.523.488a.2.2,0,0,1-.27.3Z" transform="translate(-146.7 -187.823)" fill="#fff"></path></g></g></svg>